<svg width="30" height="30" viewBox="0 0 30 30" fill="none" xmlns="http://www.w3.org/2000/svg">
<path d="M15.284 0C6.81585 0 0 6.83432 0 15.3254C0 22.1598 4.33733 27.7515 10.327 29.8225C11.1531 30.0296 11.3597 29.4083 11.3597 28.9941C11.3597 28.5799 11.3597 27.7515 11.3597 26.3018C7.22888 27.1302 6.19618 24.2308 6.19618 24.2308C5.57657 22.3669 4.54389 21.9527 4.54389 21.9527C3.09812 20.9172 4.54389 21.1243 4.54389 21.1243C5.98967 21.3314 6.81584 22.7811 6.81584 22.7811C8.26162 25.0592 10.327 24.4379 11.1532 24.0237C11.3597 22.9882 11.7728 22.3669 12.1859 21.9527C8.88125 21.5385 5.16349 20.2959 5.16349 14.2899C5.16349 12.6331 5.78314 11.1834 6.81584 10.1479C6.6093 9.73373 6.19623 8.28402 7.02239 6.00592C7.02239 6.00592 8.26163 5.59172 11.1532 7.66272C12.3924 7.24852 13.6316 7.24852 14.8709 7.24852C16.1101 7.24852 17.5559 7.45562 18.5886 7.66272C21.4801 5.59172 22.7193 6.00592 22.7193 6.00592C23.5455 8.07692 22.9259 9.73373 22.9259 10.1479C23.9586 11.1834 24.5782 12.6331 24.5782 14.2899C24.5782 20.0888 21.067 21.5385 17.5559 21.9527C18.1755 22.3669 18.5886 23.4024 18.5886 24.8521C18.5886 26.9231 18.5886 28.5799 18.5886 28.9941C18.5886 29.4083 18.7951 29.8225 19.6212 29.8225C25.6109 27.7515 29.9482 21.9527 29.9482 15.3254C30.3613 6.83432 23.5455 0 15.284 0Z" fill="#FFA372"/>
</svg>
