<?xml version="1.0" encoding="UTF-8" standalone="no"?>
<svg
   xmlns:dc="http://purl.org/dc/elements/1.1/"
   xmlns:cc="http://creativecommons.org/ns#"
   xmlns:rdf="http://www.w3.org/1999/02/22-rdf-syntax-ns#"
   xmlns:svg="http://www.w3.org/2000/svg"
   xmlns="http://www.w3.org/2000/svg"
   xmlns:sodipodi="http://sodipodi.sourceforge.net/DTD/sodipodi-0.dtd"
   xmlns:inkscape="http://www.inkscape.org/namespaces/inkscape"
   version="1.1"
   id="svg28"
   xml:space="preserve"
   width="294.8685"
   height="243.2693"
   viewBox="0 0 294.86849 243.2693"
   sodipodi:docname="hearth.svg"
   inkscape:version="1.0.1 (0767f8302a, 2020-10-17)"><metadata
     id="metadata34"><rdf:RDF><cc:Work
         rdf:about=""><dc:format>image/svg+xml</dc:format><dc:type
           rdf:resource="http://purl.org/dc/dcmitype/StillImage" /><dc:title></dc:title></cc:Work></rdf:RDF></metadata><defs
     id="defs32" /><sodipodi:namedview
     pagecolor="#ffffff"
     bordercolor="#666666"
     borderopacity="1"
     objecttolerance="10"
     gridtolerance="10"
     guidetolerance="10"
     inkscape:pageopacity="0"
     inkscape:pageshadow="2"
     inkscape:window-width="1280"
     inkscape:window-height="656"
     id="namedview30"
     showgrid="false"
     inkscape:zoom="0.31082888"
     inkscape:cx="89.524563"
     inkscape:cy="121.63461"
     inkscape:window-x="0"
     inkscape:window-y="75"
     inkscape:window-maximized="1"
     inkscape:current-layer="g38"
     fit-margin-top="0"
     fit-margin-left="0"
     fit-margin-right="0"
     fit-margin-bottom="0" /><g
     id="g36"
     inkscape:groupmode="layer"
     inkscape:label="ink_ext_XXXXXX"
     transform="matrix(1.3333333,0,0,-1.3333333,-600.56574,869.63463)"><g
       id="g38"
       transform="scale(0.1)"><path
         d="m 6715.7568,5967.9347 c 0,305.633 -259.6177,554.3252 -578.6436,554.3252 -234.1522,0 -436.1076,-133.8904 -527.1579,-325.8413 -90.9609,191.9509 -292.961,325.8413 -527.0015,325.8413 -319.1636,0 -578.7106,-248.6922 -578.7106,-554.3252 0,-64.4722 11.56,-126.302 32.8297,-183.9347 24.1996,-65.599 60.8826,-125.5175 107.3869,-177.1951 19.8288,-22.1124 41.3702,-42.6415 64.6205,-61.5089 l 882.6471,-839.7571 c 5.4319,-5.2134 12.5056,-7.7988 19.6501,-7.7988 7.2078,0 14.3299,2.5854 19.8028,7.7988 l 915.4246,871.1303 -0.063,0.1176 c 59.3264,56.9552 105.853,126.0774 134.9894,203.23 22.1259,58.6918 34.2258,121.9872 34.2258,187.9179"
         style="fill:#ffa372;fill-opacity:1;fill-rule:nonzero;stroke:none;stroke-width:0.364364"
         id="path42" /></g></g></svg>
