<svg width="30" height="30" viewBox="0 0 30 30" fill="none" xmlns="http://www.w3.org/2000/svg">
<path d="M6.60926 9.11243H0V29.2012H6.60926V9.11243Z" fill="#FFA372"/>
<path d="M24.3717 9.31953H24.1652H23.9586C23.5455 9.31953 23.1325 9.11243 22.7194 9.11243C19.0017 9.11243 16.5232 11.8047 15.697 13.0473V9.11243H9.08777V29.2012H15.697V18.432C15.697 18.432 20.654 11.5976 22.7194 16.568C22.7194 21.1243 22.7194 29.4083 22.7194 29.4083H29.3286V15.7396C29.3286 12.6331 27.2632 10.1479 24.3717 9.31953Z" fill="#FFA372"/>
<path d="M3.30463 6.62722C5.12973 6.62722 6.60926 5.14367 6.60926 3.31361C6.60926 1.48355 5.12973 0 3.30463 0C1.47953 0 0 1.48355 0 3.31361C0 5.14367 1.47953 6.62722 3.30463 6.62722Z" fill="#FFA372"/>
</svg>
