<svg width="65" height="56" viewBox="0 0 65 56" fill="none" xmlns="http://www.w3.org/2000/svg">
<path d="M19.0656 33.2784L16.6608 30.8736V16.3584L21.4992 11.2608V18.7632H31.176V21.1968L28.7424 23.6016H21.4992V28.44H31.176V30.8736L28.7424 33.2784H19.0656Z" fill="#2C003E"/>
<path d="M42.7968 33.2496V23.6016H37.9584V33.2784H33.12V2.4192L35.5392 0.072L37.9584 0V21.1968L40.3632 18.7632H45.2016L47.6352 21.1968L47.6784 30.888L44.9568 33.264L42.7968 33.2496Z" fill="#2C003E"/>
<path d="M51.9696 33.2784L49.5648 30.8736V21.1968L51.9696 18.7632H61.6464L64.08 21.1968V30.8736L61.6464 33.2784H51.9696ZM59.2416 28.44V23.6016H54.4032V28.44H59.2416Z" fill="#2C003E"/>
<path d="M47.664 55.1232L42.8256 50.1552V40.608H37.9872V48.1104H33.1488V35.7696H45.2304L47.664 38.2032V55.1232Z" fill="#2C003E"/>
<path d="M59.2704 55.1232V50.2848H51.9984L49.5936 47.88V35.7696H51.9984L54.432 38.2032V45.4464H59.2704V35.7696H64.1088V50.2848L59.2704 55.1232Z" fill="#2C003E"/>
<path d="M2.4048 14.5152L0 12.1104V2.448L2.4048 0H12.0816L14.5152 2.448V14.5296H9.67679V12.1248L7.24319 14.5296H2.4048V14.5152ZM9.67679 9.6768V4.8384H4.8384V9.6768H9.67679Z" fill="#2C003E"/>
<path d="M30.9744 16.5888H26.136V4.8384H21.2976V7.92L16.4592 12.8736V0H28.5408L30.9744 2.448V16.5888Z" fill="#2C003E"/>
<path d="M40.248 50.2128H4.9536V17.28H2.4768L0 15.1776V52.3296V52.8192L2.4768 55.296H4.9536H38.016H40.4928H45.3168L40.248 50.2128Z" fill="#FFA372"/>
</svg>
