<svg width="45" height="33" viewBox="0 0 45 33" fill="none" xmlns="http://www.w3.org/2000/svg">
<path d="M44.9668 3.22594C44.9668 3.17452 45.0022 3.12447 44.9998 3.07364L31.2673 16.3056L44.9834 29.1149C44.9914 29.0234 44.9668 28.9311 44.9668 28.8377V3.22594Z" fill="#FFA372"/>
<path d="M29.1711 18.3419L23.5651 23.7356C23.2814 24.0085 22.915 24.1453 22.5484 24.1453C22.1895 24.1453 21.8305 24.0144 21.5488 23.7518L15.9581 18.5421L2.15247 31.8491C2.48815 31.9698 2.84847 32.0634 3.2258 32.0634H41.8713C42.4316 32.0634 42.9571 31.8927 43.414 31.6382L29.1711 18.3419Z" fill="#FFA372"/>
<path d="M22.5324 20.6597L43.4901 0.47137C43.0156 0.189252 42.4633 0 41.8713 0H3.22578C2.45489 0 1.74852 0.299323 1.19836 0.755834L22.5324 20.6597Z" fill="#FFA372"/>
<path d="M0 3.71765V28.8373C0 29.1257 0.0662772 29.4037 0.138224 29.6694L13.7726 16.5398L0 3.71765Z" fill="#FFA372"/>
</svg>
