<svg width="22" height="22" viewBox="0 0 22 22" fill="none" xmlns="http://www.w3.org/2000/svg">
<path d="M20.0664 2.62109H7.08984C6.02336 2.62109 5.15625 3.48863 5.15625 4.55469C5.15625 5.62117 6.02336 6.48828 7.08984 6.48828H20.0664C21.1325 6.48828 22 5.62117 22 4.55469C22 3.48863 21.1325 2.62109 20.0664 2.62109Z" fill="#FFA372"/>
<path d="M20.0664 9.06641H7.08984C6.02336 9.06641 5.15625 9.93395 5.15625 11C5.15625 12.0665 6.02336 12.9336 7.08984 12.9336H20.0664C21.1325 12.9336 22 12.0665 22 11C22 9.93395 21.1325 9.06641 20.0664 9.06641Z" fill="#FFA372"/>
<path d="M20.0664 15.5117H7.08984C6.02336 15.5117 5.15625 16.3793 5.15625 17.4453C5.15625 18.5118 6.02336 19.3789 7.08984 19.3789H20.0664C21.1325 19.3789 22 18.5118 22 17.4453C22 16.3793 21.1325 15.5117 20.0664 15.5117Z" fill="#FFA372"/>
<path d="M1.93359 2.62109C0.867109 2.62109 0 3.48863 0 4.55469C0 5.62117 0.867109 6.48828 1.93359 6.48828C2.99965 6.48828 3.86719 5.62117 3.86719 4.55469C3.86719 3.48863 2.99965 2.62109 1.93359 2.62109Z" fill="#FFA372"/>
<path d="M1.93359 9.06641C0.867109 9.06641 0 9.93395 0 11C0 12.0665 0.867109 12.9336 1.93359 12.9336C2.99965 12.9336 3.86719 12.0665 3.86719 11C3.86719 9.93395 2.99965 9.06641 1.93359 9.06641Z" fill="#FFA372"/>
<path d="M1.93359 15.5117C0.867109 15.5117 0 16.3793 0 17.4453C0 18.5118 0.867109 19.3789 1.93359 19.3789C2.99965 19.3789 3.86719 18.5118 3.86719 17.4453C3.86719 16.3793 2.99965 15.5117 1.93359 15.5117Z" fill="#FFA372"/>
</svg>
