<svg width="27" height="30" viewBox="0 0 27 30" fill="none" xmlns="http://www.w3.org/2000/svg">
<path d="M14.9215 29.8743C13.4758 29.8743 12.4431 29.4601 11.4104 28.4246C8.10574 25.1109 4.59456 21.5902 1.28993 18.2766C0.463776 17.4482 0.0507168 16.6198 0.0507168 15.3772C-0.155822 13.9275 0.25725 12.6849 1.49648 11.4423C4.80111 8.1287 8.31226 4.60799 11.6169 1.29438C12.6496 0.258876 13.8888 -0.155325 15.5412 0.0517752C16.5738 0.258876 17.6065 0.673077 18.4327 1.50148C20.7046 3.77959 22.9766 6.05769 25.2485 8.3358C26.2812 9.3713 26.6943 10.821 26.4877 12.2707C26.2812 13.5133 25.6616 14.3417 24.8354 15.1701C23.5962 16.4127 22.5635 17.4482 21.3243 18.6908C20.4981 19.5192 19.4654 20.5547 18.6392 21.3831C18.4327 21.5902 18.4327 21.5902 18.6392 21.7973C19.6719 22.8328 20.7046 23.8683 21.7373 24.9038C21.9439 25.1109 21.9439 25.1109 21.7373 25.318C20.7046 26.3535 19.6719 27.389 18.4327 28.6317C17.1935 29.4601 16.1608 29.8743 14.9215 29.8743ZM14.715 25.1109C14.9215 25.1109 14.9215 24.9038 14.715 25.1109C15.9542 24.0754 16.7804 23.0399 17.8131 22.0044C18.0196 21.7973 18.0196 21.7973 17.8131 21.5902C16.7804 20.5547 15.7477 19.5192 14.9215 18.6908C14.715 18.4837 14.715 18.4837 14.9215 18.2766C16.9869 16.2056 19.0523 14.1346 21.3243 11.8565C21.5308 11.6494 21.5308 11.6494 21.3243 11.4423C19.2589 9.3713 17.1935 7.3003 14.9215 5.02219C14.715 4.81509 14.715 4.81509 14.5085 5.02219C11.2038 8.3358 8.10575 11.4423 4.80112 14.7559C4.59458 14.963 4.59458 14.963 4.80112 15.1701C6.45344 16.8269 8.10574 18.4837 9.75805 20.1405C11.4104 21.7973 13.0627 23.247 14.715 25.1109C14.715 24.9038 14.715 25.1109 14.715 25.1109Z" fill="#14001E"/>
</svg>
