<svg width="45" height="46" viewBox="0 0 45 46" fill="none" xmlns="http://www.w3.org/2000/svg">
<path fill-rule="evenodd" clip-rule="evenodd" d="M38.4436 6.57106C34.2134 2.33588 28.5875 0.00248381 22.5941 0C10.2441 0 0.192909 10.0509 0.187942 22.4042C0.186286 26.3532 1.21789 30.2081 3.17872 33.6059L0 45.2164L11.8779 42.1006C15.1507 43.8859 18.8353 44.8267 22.585 44.8278H22.5944C34.9431 44.8278 44.9953 34.7761 45 22.4222C45.0025 16.4351 42.6741 10.806 38.4436 6.57106ZM22.5941 41.0438H22.5864C19.2448 41.0425 15.9676 40.1444 13.1079 38.448L12.4282 38.0442L5.37965 39.8933L7.261 33.0211L6.81806 32.3166C4.95382 29.3515 3.9694 25.9243 3.97106 22.4056C3.97492 12.1378 12.3294 3.78422 22.6016 3.78422C27.5758 3.78588 32.2517 5.72546 35.7677 9.24557C39.2837 12.7657 41.2188 17.4446 41.2172 22.4208C41.2127 32.6894 32.8589 41.0438 22.5941 41.0438ZM32.8092 27.0962C32.2495 26.8158 29.4969 25.4618 28.9836 25.2747C28.4708 25.0879 28.0971 24.9949 27.7243 25.5551C27.3509 26.1153 26.2782 27.3765 25.9514 27.7499C25.6246 28.1236 25.2984 28.1705 24.7385 27.8901C24.1785 27.61 22.3747 27.0186 20.2361 25.1113C18.572 23.6268 17.4485 21.7935 17.1217 21.2333C16.7955 20.6725 17.119 20.3987 17.3673 20.0907C17.9734 19.3381 18.5803 18.5491 18.7668 18.1757C18.9537 17.802 18.8601 17.475 18.7199 17.1949C18.5803 16.9147 17.4606 14.1591 16.9942 13.0378C16.5394 11.9466 16.0783 12.0939 15.7344 12.0768C15.4082 12.0606 15.0348 12.0572 14.6614 12.0572C14.2883 12.0572 13.6817 12.1972 13.1683 12.7579C12.6553 13.3185 11.2092 14.6727 11.2092 17.4283C11.2092 20.184 13.2152 22.8461 13.4951 23.2198C13.7749 23.5934 17.443 29.2482 23.0589 31.673C24.3946 32.2503 25.4372 32.5945 26.2506 32.8525C27.5918 33.2786 28.8119 33.2185 29.7767 33.0744C30.8525 32.9135 33.0888 31.7199 33.5557 30.4123C34.0221 29.1045 34.0221 27.9837 33.8819 27.7499C33.7423 27.5165 33.3689 27.3765 32.8092 27.0962Z" fill="#FFA372"/>
</svg>
